Coordinates
version=1
nRows=14
nColumns=36
inDegrees=yes

Units are S.I. units (second, meters, Newtons, ...)
If the header above contains a line with 'inDegrees', this indicates whether rotational values are in degrees (yes) or radians (no).

endheader
time	pelvis_tilt	pelvis_list	pelvis_rotation	pelvis_tx	pelvis_ty	pelvis_tz	hip_flexion_r	hip_adduction_r	hip_rotation_r	knee_angle_r	knee_angle_r_beta	ankle_angle_r	subtalar_angle_r	mtp_angle_r	hip_flexion_l	hip_adduction_l	hip_rotation_l	knee_angle_l	knee_angle_l_beta	ankle_angle_l	subtalar_angle_l	mtp_angle_l	lumbar_extension	lumbar_bending	lumbar_rotation	arm_flex_r	arm_add_r	arm_rot_r	elbow_flex_r	pro_sup_r	arm_flex_l	arm_add_l	arm_rot_l	elbow_flex_l	pro_sup_l
      0.00000000	     24.27932606	      5.75620469	     26.38414273	      0.36885642	      0.87393592	      0.36428476	    -23.37596967	     14.13032589	    -17.82341996	     13.19198640	      0.23024360	     24.56144905	     -0.00946464	     -6.53210542	    -13.51126487	    -26.81209113	    -34.05727852	      0.18117126	      0.00316204	    -27.09815711	    -32.15985666	     -6.53210542	    -29.45820037	      8.59123148	      7.57372269	     -2.95143008	     -4.75266143	    -10.35409805	     35.00072623	     82.54043525	    125.09503246	     -6.48543701	     45.20193148	    114.89625243	     67.06985538
      0.01666670	     26.20134053	      7.09764962	     24.19452829	      0.36446293	      0.88661734	      0.36364238	    -25.56448405	     12.23415751	    -16.60344893	     14.32926626	      0.25009288	     25.45278319	     -3.95713933	     -6.85265629	    -17.02463968	    -23.38939159	    -38.76893878	      0.20843238	      0.00363783	    -25.39128117	    -33.88936034	     -6.85265629	    -34.16439953	      7.90734621	      9.93115526	     -1.86788604	     -5.66542739	    -16.55930738	     34.74119105	     85.37792216	    125.75771483	     -5.60415763	     43.49963098	    118.66702643	     80.14875049
      0.03333330	     26.79759664	      7.15838293	     23.60434133	      0.36547156	      0.89250598	      0.36276781	    -26.43367491	     12.19423226	    -15.66540560	     14.54166826	      0.25379999	     22.48161891	     -8.40751170	     -7.01702220	    -18.36332414	    -22.45359191	    -39.34242325	      0.21325183	      0.00372195	    -24.90677728	    -34.13075375	     -7.01702220	    -34.45226171	      7.80182413	     11.93585307	     -1.67686911	     -6.29621134	    -18.53485658	     32.90111732	     87.37005827	    124.77542359	     -2.28320708	     43.12665085	    120.45407652	     88.66224895
      0.05000000	     26.67107592	      7.06367165	     23.49105188	      0.36579520	      0.89371104	      0.36238776	    -26.59806748	     12.22448071	    -15.57808415	     14.01954402	      0.24468720	     21.93180813	     -8.61595538	     -7.20962543	    -18.26004157	    -22.42274846	    -39.56844333	      0.19303839	      0.00336916	    -25.43566687	    -34.26935047	     -7.20962543	    -34.04923839	      7.77877902	     12.90074377	     -1.93162735	     -5.72068665	    -22.02276174	     31.84283651	     90.43910965	    124.11553962	     -0.76391863	     43.78477625	    120.81209694	     96.09230633
      0.06666670	     26.74522108	      7.01524022	     23.49089822	      0.36506596	      0.89516388	      0.36165228	    -27.02591007	     12.45717043	    -15.71794118	     13.25399521	      0.23132586	     21.77493722	     -8.24868366	     -7.34030650	    -18.30772006	    -22.38648929	    -39.64953127	      0.17757825	      0.00309933	    -25.95870274	    -34.34451632	     -7.34030650	    -34.02320470	      8.09363593	     13.43300679	     -1.85274666	     -5.29798089	    -25.54448138	     30.67448907	     94.59591400	    123.88989118	     -0.46314531	     43.69464249	    121.14600308	    100.23151474
      0.08333330	     27.01293414	      7.17262028	     23.45205091	      0.36579969	      0.89650818	      0.36183366	    -27.70678914	     12.55830561	    -15.68880853	     12.49011699	      0.21799367	     21.42766968	     -8.13763117	     -7.37734189	    -18.69126888	    -22.28090749	    -39.70072989	      0.16984511	      0.00296436	    -26.37567132	    -34.39811649	     -7.37734189	    -34.29899526	      8.29793520	     13.70108463	     -1.89175347	     -4.83044700	    -28.54471779	     30.19322493	     97.23319371	    123.78328374	     -0.69638281	     43.36417520	    121.28818540	    101.87736956
      0.10000000	     27.16318627	      7.25643996	     23.40972913	      0.36612748	      0.89639873	      0.36099942	    -28.09166469	     12.59256432	    -15.67108552	     12.05301138	      0.21036473	     21.30694729	     -8.17274296	     -7.38983836	    -18.90463997	    -22.24604989	    -39.72839184	      0.16479291	      0.00287618	    -26.67095687	    -34.43026276	     -7.38983836	    -34.39970215	      8.50167681	     13.57825331	     -1.87263337	     -4.77711496	    -29.03189278	     29.39531805	     96.74674402	    123.95364929	     -1.34034074	     43.15546087	    121.40733647	    101.42263679
      0.11666670	     27.46402216	      7.36180909	     23.27909179	      0.36689982	      0.89513053	      0.36078264	    -28.48685829	     12.61364576	    -15.34136379	     11.99473519	      0.20934762	     20.90236045	     -9.03360011	     -7.41925087	    -19.42254407	    -22.21604296	    -39.74521152	      0.16169462	      0.00282210	    -26.73875829	    -34.44377102	     -7.41925087	    -34.65640507	      8.59008679	     13.36508207	     -2.15690975	     -4.77009738	    -29.06341884	     29.24506681	     96.81734617	    124.29066817	     -1.89752570	     43.05391156	    121.27676189	    101.23479749
      0.13333330	     27.67597708	      7.35131121	     23.11443961	      0.36785716	      0.89487250	      0.36046563	    -28.61265386	     12.62073568	    -15.23221916	     12.23928443	      0.21361581	     20.86085541	     -9.44965882	     -7.44214241	    -19.85388434	    -22.27744989	    -39.75251866	      0.16014661	      0.00279509	    -26.57975966	    -34.45814901	     -7.44214241	    -34.71432664	      8.77685656	     13.12521231	     -2.55749787	     -4.56823435	    -30.36581153	     29.39239955	    100.33962665	    124.26292459	     -2.57771325	     43.35731056	    121.33150439	    102.71415490
      0.15000000	     27.78291856	      7.21315272	     23.00830470	      0.36775395	      0.89578077	      0.36080249	    -28.61196931	     12.82715249	    -14.57294390	     12.26119435	      0.21399821	     20.60928012	    -10.58923271	     -7.44787086	    -20.00351888	    -22.46741039	    -39.75787212	      0.15728720	      0.00274518	    -26.40769611	    -34.45496600	     -7.44787086	    -34.66774955	      8.92835464	     13.01246143	     -2.91596752	     -4.53360498	    -30.20839159	     29.40474224	     98.64411256	    124.34297377	     -2.87028419	     43.72440912	    121.65448644	    101.19425830
      0.16666670	     27.95817523	      7.23969627	     22.92834854	      0.36778455	      0.89534615	      0.35986205	    -28.65367490	     12.77482693	    -14.73840645	     12.66250042	      0.22100232	     21.17133914	    -10.27682291	     -7.46109839	    -20.26362259	    -22.47160912	    -39.75998480	      0.15426599	      0.00269245	    -26.21174296	    -34.44815840	     -7.46109839	    -34.74862150	      8.92777408	     12.73505631	     -3.13724622	     -4.89825553	    -28.49084847	     28.94700480	     99.06418967	    124.57961959	     -3.17338072	     44.56951478	    121.76794899	    101.59435008
      0.18333330	     27.97432807	      7.21473568	     22.95332601	      0.36816364	      0.89584189	      0.36082614	    -28.61303059	     12.85411476	    -14.71858996	     12.76340531	      0.22276345	     21.26567736	    -10.49121149	     -7.46563115	    -20.29169556	    -22.54944468	    -39.76851212	      0.15237303	      0.00265941	    -26.40148786	    -34.45786453	     -7.46563115	    -34.75944866	      8.93754387	     12.70163628	     -3.48253429	     -4.96224955	    -28.03176521	     28.79281700	     97.60280502	    124.79893052	     -3.45537627	     45.66532754	    121.99702380	    100.46215529
      0.20000000	     27.92591122	      7.15262961	     23.00392587	      0.36843066	      0.89661878	      0.36205640	    -28.54906925	     13.01319306	    -14.70390493	     12.69526932	      0.22157425	     21.08207055	    -10.61162320	     -7.47147573	    -20.20252077	    -22.68802275	    -39.77589785	      0.15086245	      0.00263305	    -26.69536600	    -34.46273519	     -7.47147573	    -34.67993089	      8.97494190	     12.40015847	     -3.63216563	     -5.16333042	    -26.32414827	     28.17330524	     97.41482067	    124.94331531	     -3.95197679	     46.48123254	    122.64792961	    100.84438581
      0.21666670	     27.89786060	      7.20651413	     23.06028999	      0.36825512	      0.89749338	      0.36177809	    -28.50351070	     13.03536855	    -14.71716663	     12.72871712	      0.22215802	     20.57082408	    -11.09132902	     -7.47667969	    -20.17663554	    -22.64675119	    -39.78378461	      0.15142835	      0.00264292	    -27.12999267	    -34.47380359	     -7.47667969	    -34.70132046	      8.94765716	     12.33068932	     -4.04377068	     -5.24423552	    -25.54263314	     28.07099462	     97.75758477	    124.94363816	     -4.38188998	     46.95922801	    123.29126032	    101.62219204
